fd_2_states
version=1
nRows=20
nColumns=17
inDegrees=yes

# SIMM Motion File Header:
name fd_2_states
datacolumns 17
datarows 20
otherdata 1
range 0.37069848 0.40169502
endheader
time	/jointset/r_shoulder/r_shoulder_elev/value	/jointset/r_shoulder/r_shoulder_elev/speed	/jointset/r_elbow/r_elbow_flex/value	/jointset/r_elbow/r_elbow_flex/speed	/forceset/TRIlong/activation	/forceset/TRIlong/fiber_length	/forceset/TRIlat/activation	/forceset/TRIlat/fiber_length	/forceset/TRImed/activation	/forceset/TRImed/fiber_length	/forceset/BIClong/activation	/forceset/BIClong/fiber_length	/forceset/BICshort/activation	/forceset/BICshort/fiber_length	/forceset/BRA/activation	/forceset/BRA/fiber_length
      0.37069848	    -11.03925464	    -53.11626171	     69.98887769	    171.38355432	      0.02000066	      0.15629509	      0.10109370	      0.09655525	      0.10018696	      0.09160302	      0.44545402	      0.11690326	      0.06502231	      0.11610267	      0.02094308	      0.07608829
      0.37140884	    -11.07694874	    -53.00990228	     70.11063878	    171.43017464	      0.02000065	      0.15631244	      0.10172670	      0.09659398	      0.10071187	      0.09164201	      0.44662831	      0.11682150	      0.06468958	      0.11602593	      0.02093422	      0.07604780
      0.37390297	    -11.20868031	    -52.61834580	     70.53837924	    171.55697033	      0.02000063	      0.15637354	      0.10347068	      0.09672853	      0.10215788	      0.09177815	      0.45021946	      0.11653266	      0.06355099	      0.11575549	      0.02090378	      0.07590516
      0.37639710	    -11.33940525	    -52.20508484	     70.96638301	    171.64942550	      0.02000061	      0.15643491	      0.10465845	      0.09686452	      0.10314216	      0.09191554	      0.45311188	      0.11624207	      0.06245696	      0.11548341	      0.02087433	      0.07576170
      0.37879423	    -11.46405978	    -51.79562321	     71.37795221	    171.73300436	      0.02000059	      0.15649417	      0.10544304	      0.09699708	      0.10379174	      0.09204900	      0.45536353	      0.11596195	      0.06144567	      0.11522033	      0.02084693	      0.07562307
      0.37997378	    -11.52503321	    -51.58754784	     71.58053953	    171.76406475	      0.02000058	      0.15652351	      0.10573565	      0.09706290	      0.10403380	      0.09211511	      0.45631283	      0.11582394	      0.06096198	      0.11509029	      0.02083376	      0.07555459
      0.38061516	    -11.55808346	    -51.47263569	     71.69070957	    171.77814253	      0.02000058	      0.15653954	      0.10625540	      0.09709849	      0.10445843	      0.09215089	      0.45726675	      0.11574881	      0.06071093	      0.11501941	      0.02082669	      0.07551728
      0.38125653	    -11.59105939	    -51.35561531	     71.80088726	    171.78735549	      0.02000057	      0.15655562	      0.10683837	      0.09713338	      0.10493425	      0.09218611	      0.45831204	      0.11567345	      0.06046491	      0.11494841	      0.02081968	      0.07547992
      0.38378587	    -11.72034559	    -50.86605567	     72.23537561	    171.75229552	      0.02000055	      0.15661956	      0.10865243	      0.09726955	      0.10641408	      0.09232401	      0.46191538	      0.11537417	      0.05951850	      0.11466719	      0.02079260	      0.07533213
      0.38631520	    -11.84834173	    -50.33811160	     72.66965029	    171.62755750	      0.02000054	      0.15668438	      0.10988677	      0.09740743	      0.10741968	      0.09246336	      0.46481826	      0.11507271	      0.05860886	      0.11438415	      0.02076642	      0.07518363
      0.38897005	    -11.98121684	    -49.75846644	     73.12507149	    171.45501991	      0.02000052	      0.15675335	      0.11076247	      0.09755464	      0.10813188	      0.09261156	      0.46726426	      0.11475511	      0.05769191	      0.11408526	      0.02073988	      0.07502711
      0.39000724	    -12.03270627	    -49.52779009	     73.30286661	    171.38564913	      0.02000051	      0.15678055	      0.11102234	      0.09761269	      0.10834566	      0.09266987	      0.46808416	      0.11463088	      0.05734466	      0.11396803	      0.02072976	      0.07496579
      0.39076865	    -12.07035225	    -49.35710749	     73.43334167	    171.33452817	      0.02000051	      0.15680062	      0.11153564	      0.09765510	      0.10917005	      0.09271210	      0.46918815	      0.11453956	      0.05722154	      0.11388171	      0.02072242	      0.07492071
      0.39153006	    -12.10786738	    -49.18381883	     73.56377620	    171.27833460	      0.02000050	      0.15682076	      0.11205608	      0.09769691	      0.11002851	      0.09275300	      0.47032552	      0.11444795	      0.05712471	      0.11379500	      0.02071515	      0.07487558
      0.39412737	    -12.23481816	    -48.56407130	     74.00832654	    171.01935324	      0.02000048	      0.15689006	      0.11344204	      0.09783906	      0.11230916	      0.09289121	      0.47369771	      0.11413397	      0.05680257	      0.11349675	      0.02069091	      0.07472129
      0.39672468	    -12.36010899	    -47.90858243	     74.45209591	    170.68738132	      0.02000047	      0.15696027	      0.11438021	      0.09798269	      0.11384877	      0.09303157	      0.47640842	      0.11381870	      0.05649269	      0.11319556	      0.02066749	      0.07456651
      0.39895558	    -12.46634369	    -47.32919559	     74.83254524	    170.38594455	      0.02000045	      0.15702130	      0.11494083	      0.09810735	      0.11476737	      0.09315419	      0.47831058	      0.11354758	      0.05623595	      0.11293512	      0.02064801	      0.07443322
      0.39999519	    -12.51540599	    -47.05645767	     75.00960858	    170.24841550	      0.02000045	      0.15704996	      0.11514477	      0.09816575	      0.11510130	      0.09321182	      0.47908342	      0.11342125	      0.05611919	      0.11281331	      0.02063913	      0.07437100
      0.40063699	    -12.54555266	    -46.88735585	     75.11884739	    170.16484209	      0.02000044	      0.15706773	      0.11585667	      0.09820137	      0.11573080	      0.09324716	      0.48005437	      0.11334319	      0.05591974	      0.11273808	      0.02063371	      0.07433257
      0.40169502	    -12.59501174	    -46.60431048	     75.29881093	    170.01881712	      0.02000044	      0.15709715	      0.11707066	      0.09825814	      0.11677934	      0.09330410	      0.48171018	      0.11321408	      0.05555333	      0.11261434	      0.02062487	      0.07426915
